<?xml version="1.0" encoding="utf-8"?>
<!-- Generator: Adobe Illustrator 23.0.0, SVG Export Plug-In . SVG Version: 6.00 Build 0)  -->
<svg version="1.1" id="Layer_1" xmlns="http://www.w3.org/2000/svg" xmlns:xlink="http://www.w3.org/1999/xlink" x="0px" y="0px"
	 viewBox="0 0 4048 4048" style="enable-background:new 0 0 4048 4048;" xml:space="preserve">
<style type="text/css">
	.st0{fill-rule:evenodd;clip-rule:evenodd;fill:#FFFFFF;}
	.st1{fill:none;stroke:#FFFFFF;stroke-width:20;stroke-miterlimit:10;}
	.st2{fill:none;stroke:#000000;stroke-width:20;stroke-miterlimit:10;}
	.st3{fill-rule:evenodd;clip-rule:evenodd;}
	.st4{display:none;}
	.st5{display:inline;fill-rule:evenodd;clip-rule:evenodd;}
	.st6{display:inline;fill:none;stroke:#000000;stroke-width:20;stroke-miterlimit:10;}
	.st7{display:none;fill-rule:evenodd;clip-rule:evenodd;fill:#FFFFFF;}
	.st8{display:none;fill-rule:evenodd;clip-rule:evenodd;}
</style>
<g>
	<path class="st0" d="M3826.42,3210.31c0,428.44-347.31,775.76-775.74,775.76c-229.74,0-436.15-99.88-578.19-258.58h-911.4
		c-141.42,158.7-346.92,258.58-575.66,258.58c-426.55,0-772.34-347.32-772.34-775.76c0-11.4,0.26-22.73,0.74-34.01
		c-0.48-11.28-0.74-22.61-0.74-34.01c0-428.06,345.18-775.14,771.21-775.76v-0.01h2066.42l0,0
		c428.41,0.02,775.7,347.33,775.7,775.76c0,11.4-0.26,22.73-0.75,34.01C3826.16,3187.58,3826.42,3198.91,3826.42,3210.31z"/>
	<path class="st1" d="M3050.68,4015.07c-116.5,0-228.88-24.36-334.03-72.4c-50.43-23.04-98.68-51.47-143.42-84.49
		c-40.87-30.17-79.02-64.34-113.56-101.69h-885.72c-34.38,37.33-72.35,71.49-113.03,101.65c-44.55,33.03-92.6,61.46-142.82,84.51
		c-104.72,48.05-216.65,72.42-332.67,72.42c-108.18,0-213.15-21.29-311.97-63.27c-95.43-40.54-181.13-98.58-254.71-172.48
		c-73.57-73.9-131.34-159.96-171.7-255.79c-41.78-99.22-62.97-204.6-62.97-313.22c0-11.09,0.24-22.53,0.72-34.01
		c-0.48-11.49-0.72-22.92-0.72-34.01c0-108.52,21.15-213.81,62.86-312.96c40.29-95.76,97.96-181.77,171.42-255.66
		c73.46-73.89,159.03-131.94,254.33-172.54c89.84-38.28,184.77-59.44,282.6-63.04v-0.55l29-0.01h2066.42
		c108.62,0.01,214.01,21.29,313.24,63.27c95.83,40.54,181.88,98.56,255.78,172.46c73.89,73.9,131.91,159.96,172.44,255.79
		c41.97,99.23,63.25,204.62,63.25,313.25c0,11.08-0.24,22.51-0.72,34.01c0.48,11.5,0.72,22.93,0.72,34.01
		c0,108.63-21.28,214.02-63.25,313.26c-40.53,95.83-98.55,181.9-172.45,255.79c-73.9,73.9-159.96,131.92-255.79,172.46
		C3264.7,3993.79,3159.3,4015.07,3050.68,4015.07z"/>
	<path class="st2" d="M3050.68,3995.07c-113.61,0-223.2-23.75-325.72-70.59c-49.17-22.47-96.23-50.19-139.85-82.39
		c-42.19-31.15-81.41-66.66-116.62-105.59h-903.37c-35.05,38.93-74.1,74.44-116.1,105.58c-43.44,32.21-90.29,59.93-139.25,82.4
		c-102.09,46.85-211.2,70.6-324.33,70.6c-105.48,0-207.81-20.75-304.15-61.68c-93.04-39.53-176.6-96.12-248.36-168.19
		c-71.75-72.07-128.08-155.99-167.44-249.44c-40.74-96.75-61.4-199.52-61.4-305.46c0-11.08,0.25-22.53,0.74-34.01
		c-0.49-11.49-0.74-22.93-0.74-34.01c0-105.84,20.62-208.53,61.29-305.2c39.28-93.38,95.53-177.26,167.17-249.31
		c71.64-72.05,155.07-128.66,247.99-168.25c93.46-39.82,192.58-60.64,294.76-61.93v-0.06l9-0.01h2066.42
		c105.93,0.01,208.7,20.76,305.45,61.69c93.44,39.53,177.36,96.11,249.42,168.18c72.06,72.07,128.64,155.99,168.16,249.44
		c40.92,96.75,61.67,199.52,61.67,305.46c0,11.07-0.25,22.52-0.74,34.01c0.49,11.5,0.74,22.94,0.74,34.01
		c0,105.94-20.75,208.71-61.67,305.47c-39.52,93.45-96.11,177.38-168.17,249.44c-72.07,72.07-155.99,128.65-249.44,168.18
		C3259.39,3974.32,3156.61,3995.07,3050.68,3995.07z"/>
</g>
<path class="st3" d="M3050.13,3917.05c-229.74,0-436.15-99.88-578.19-258.58h-911.4c-141.42,158.7-346.92,258.58-575.66,258.58
	c-426.55,0-772.34-347.32-772.34-775.76c0-428.06,345.18-775.14,771.21-775.76v-0.01h2066.42l0,0
	c428.41,0.02,775.7,347.33,775.7,775.76C3825.87,3569.73,3478.56,3917.05,3050.13,3917.05z M984.88,2603.4
	c-295.8,0-535.59,240.81-535.59,537.86c0,297.05,239.79,537.86,535.59,537.86c295.8,0,535.59-240.81,535.59-537.86
	C1520.47,2844.2,1280.68,2603.4,984.88,2603.4z M3054.46,2603.4c-295.81,0-535.61,240.81-535.61,537.86
	c0,297.05,239.8,537.86,535.61,537.86c295.81,0,535.61-240.81,535.61-537.86C3590.07,2844.2,3350.27,2603.4,3054.46,2603.4z"/>
<g class="st4">
	<path class="st5" d="M1775.12,2432.81h497.76v1293.18h-497.76V2432.81z"/>
	<rect x="1765.12" y="2422.81" class="st6" width="517.76" height="1313.18"/>
</g>
<path class="st7" d="M2024,2432.81h124.44v1293.18H2024V2432.81z"/>
<path class="st7" d="M2148.44,2432.81h124.44v1293.18h-124.44V2432.81z"/>
<path class="st7" d="M1775.12,2432.81h124.44v1293.18h-124.44V2432.81z"/>
<path class="st7" d="M1899.56,2432.81H2024v1293.18h-124.44V2432.81z"/>
<path class="st8" d="M2024,2365.29h124.44v1293.18H2024V2365.29z"/>
<path class="st7" d="M2139.44,2365.29h124.44v1293.18h-124.44V2365.29z"/>
<path class="st7" d="M1775.12,2365.29h124.44v1293.18h-124.44V2365.29z"/>
<path class="st8" d="M1899.56,2365.29H2024v1293.18h-124.44V2365.29z"/>
<g>
	<path class="st3" d="M3723.2,1031.59v304.93h-852.49V63h837.33v304.93h-508.8V547.3h434.67v283.4h-434.67v200.89H3723.2z
		 M1864.93,63h837.33v304.93h-508.8V547.3h434.67v283.4h-434.67v200.89h523.96v310.23l-852.49-5.3V63z M859.16,63h837.33v304.93
		h-508.8V547.3h434.67v283.4h-434.67v200.89h523.96v304.93H859.16V63z M325.11,63h328.53v1273.52l-328.53,152.67V63z"/>
	<path class="st1" d="M316.11,54h346.53v1288.26l-346.53,161.03V54z M1855.93,1345.46V54h855.33v322.93h-508.8V538.3h434.67v301.4
		h-434.67v182.89h523.96v328.28L1855.93,1345.46z M2861.71,1345.52V54h855.33v322.93h-508.8V538.3h434.67v301.4h-434.67v182.89
		h523.96v322.93H2861.71z M850.16,1345.52V54h855.33v322.93h-508.8V538.3h434.67v301.4h-434.67v182.89h523.96v322.93H850.16z"/>
</g>
<path class="st3" d="M3514.76,2627.62v-116.8c-100.31,84.48-215.8,126.71-346.46,126.71c-91.08,0-178.2-16.17-261.34-48.5
	c-27.48-10.69-53.81-23.01-78.98-36.94c11.45-13.13,22.57-26.55,33.3-40.3l-84.38-84.38c67.05-89.08,116.69-192.01,143.89-303.72
	c12.98,25.66,28.49,48.79,46.56,69.37c28.38,32.34,62.37,57.41,101.97,75.23c39.59,17.82,83.81,26.73,132.65,26.73
	c112.19,0,211.17-46.19,296.97-138.59h-243.51v-277.18h578.1v748.36H3514.76z M3368.25,1605.06
	c-55.44-33.65-114.17-50.49-176.19-50.49c-46.2,0-88.43,9.25-126.71,27.73c-38.28,18.48-71.28,44.22-98.99,77.21
	c-17.36,20.66-32.39,43.78-45.09,69.37c-27.09-112.51-76.91-216.16-144.37-305.8l84.84-84.84c-8.06-10.34-16.34-20.49-24.8-30.48
	c26.98-15.25,55.27-29,84.88-41.25c87.77-36.29,182.48-54.44,284.11-54.44c63.35,0,124.06,6.94,182.13,20.79
	c58.07,13.86,111.86,34.31,161.35,61.36c49.5,27.07,94.05,59.4,133.64,97.02c39.59,37.62,71.93,80.18,97.01,127.69l-287.07,219.76
	C3465.26,1683.26,3423.68,1638.71,3368.25,1605.06z M2828.75,1821.6c4.29,33.92,6.51,68.48,6.51,103.56
	c0,34.16-2.11,67.82-6.18,100.87h-102.14c-17.2,122.29-65.36,234.65-136.29,328.89l72.14,72.14
	c-42.08,53.91-90.78,102.39-144.88,144.24l-72.18-72.18c-93.65,69.74-204.95,117.09-325.99,134.11v102.14
	c-33.05,4.07-66.72,6.18-100.87,6.18c-35.08,0-69.65-2.22-103.56-6.51v-102.34c-120.9-17.63-231.98-65.53-325.3-135.76l-72.53,72.53
	c-53.94-42.04-102.47-90.7-144.35-144.76l72.69-72.69c-69.74-93.65-117.09-204.95-134.11-325.99h-103.04
	c-4.07-33.05-6.18-66.72-6.18-100.87c0-35.08,2.21-69.65,6.51-103.56h103.24c17.45-119.65,64.54-229.69,133.59-322.41l-73.08-73.08
	c41.84-54.1,90.33-102.8,144.24-144.88l73.04,73.04c93.32-70.23,204.4-118.13,325.3-135.76v-103.24
	c33.92-4.29,68.48-6.51,103.56-6.51c34.16,0,67.82,2.11,100.87,6.18v103.04c121.04,17.02,232.35,64.37,325.99,134.11l72.69-72.69
	c54.07,41.89,102.73,90.41,144.77,144.35l-72.53,72.53c70.24,93.32,118.13,204.4,135.76,325.3H2828.75z M2019.31,1416.31
	c-281.28,0-509.3,228.02-509.3,509.3c0,281.28,228.02,509.3,509.3,509.3s509.3-228.02,509.3-509.3
	C2528.61,1644.33,2300.59,1416.31,2019.31,1416.31z M1678.74,2151.37v-431.29l342.23-175.57l343.73,176.16l-0.22,430.69
	l-343.5,174.3L1678.74,2151.37z M1147.7,1628.79c-17.42-15.41-36.17-28.14-56.26-38.19c-26.4-13.2-53.78-22.43-82.17-27.71
	c-28.38-5.28-55.76-7.93-82.15-7.93c-55.44,0-103.28,10.9-143.53,32.67c-40.26,21.79-73.26,50.17-99,85.14
	c-25.74,34.97-44.87,74.56-57.41,118.78c-12.54,44.22-18.8,88.11-18.8,131.65c0,48.84,7.26,95.7,21.77,140.58
	c14.51,44.87,35.64,84.47,63.35,118.78c27.71,34.32,61.7,61.71,101.97,82.17c40.25,20.45,85.45,30.68,135.61,30.68
	c26.4,0,53.46-2.97,81.17-8.91c27.71-5.94,54.44-15.83,80.18-29.69c19.44-10.47,37.37-23.2,53.8-38.18
	c27.78,74.27,65.8,143.53,112.37,206.06l-85.06,85.06c17.95,23.17,36.95,45.48,56.92,66.89c-39.5,16.31-80.89,29.49-124.17,39.5
	c-62.7,14.5-123.74,21.77-183.13,21.77c-104.26,0-199.63-20.78-286.07-62.36c-86.46-41.58-161.03-96.68-223.73-165.32
	c-62.7-68.62-111.2-146.49-145.51-233.6c-34.32-87.11-51.47-175.55-51.47-265.31c0-85.78,16.17-170.25,48.5-253.4
	c32.34-83.15,79.51-157.73,141.54-223.71c62.04-65.99,137.27-119.45,225.7-160.37c88.43-40.91,189.4-61.38,302.91-61.38
	c112.07,0,211.79,19.08,299.19,57.2c-21.52,22.81-41.95,46.66-61.16,71.5l85.52,85.52
	C1212.84,1488.1,1175.34,1556.02,1147.7,1628.79z"/>
<g>
	<path class="st3" d="M3514.76,2553.4v-116.8c-100.31,84.48-215.8,126.71-346.46,126.71c-91.08,0-178.2-16.17-261.34-48.5
		c-27.48-10.69-53.81-23.01-78.98-36.94c11.45-13.13,22.57-26.55,33.3-40.3l-84.38-84.38c67.05-89.08,116.69-192.01,143.89-303.72
		c12.98,25.66,28.49,48.79,46.56,69.37c28.38,32.34,62.37,57.41,101.97,75.23c39.59,17.82,83.81,26.73,132.65,26.73
		c112.19,0,211.17-46.19,296.97-138.59h-243.51v-277.18h578.1v748.36H3514.76z M3368.25,1530.85
		c-55.44-33.65-114.17-50.49-176.19-50.49c-46.2,0-88.43,9.25-126.71,27.73c-38.28,18.48-71.28,44.22-98.99,77.21
		c-17.36,20.66-32.39,43.78-45.09,69.37c-27.09-112.51-76.91-216.16-144.37-305.8l84.84-84.84c-8.06-10.34-16.34-20.49-24.8-30.48
		c26.98-15.25,55.27-29,84.88-41.25c87.77-36.29,182.48-54.44,284.11-54.44c63.35,0,124.06,6.94,182.13,20.79
		c58.07,13.86,111.86,34.31,161.35,61.36c49.5,27.07,94.05,59.4,133.64,97.02c39.59,37.62,71.93,80.18,97.01,127.69l-287.07,219.76
		C3465.26,1609.05,3423.68,1564.5,3368.25,1530.85z M2828.75,1747.38c4.29,33.92,6.51,68.48,6.51,103.56
		c0,34.16-2.11,67.82-6.18,100.87h-102.14c-17.2,122.29-65.36,234.65-136.29,328.89l72.14,72.14
		c-42.08,53.91-90.78,102.39-144.88,144.24l-72.18-72.18c-93.65,69.74-204.95,117.09-325.99,134.11v102.14
		c-33.05,4.07-66.72,6.18-100.87,6.18c-35.08,0-69.65-2.22-103.56-6.51v-102.34c-120.9-17.63-231.98-65.53-325.3-135.76
		l-72.53,72.53c-53.94-42.04-102.47-90.7-144.35-144.76l72.69-72.69c-69.74-93.65-117.09-204.95-134.11-325.99h-103.04
		c-4.07-33.05-6.18-66.72-6.18-100.87c0-35.08,2.21-69.65,6.51-103.56h103.24c17.45-119.65,64.54-229.69,133.59-322.41l-73.08-73.08
		c41.84-54.1,90.33-102.8,144.24-144.88l73.04,73.04c93.32-70.23,204.4-118.13,325.3-135.76v-103.24
		c33.92-4.29,68.48-6.51,103.56-6.51c34.16,0,67.82,2.11,100.87,6.18v103.04c121.04,17.02,232.35,64.37,325.99,134.11l72.69-72.69
		c54.07,41.89,102.73,90.41,144.77,144.35l-72.53,72.53c70.24,93.32,118.13,204.4,135.76,325.3H2828.75z M2019.31,1342.1
		c-281.28,0-509.3,228.02-509.3,509.3c0,281.28,228.02,509.3,509.3,509.3s509.3-228.02,509.3-509.3
		C2528.61,1570.12,2300.59,1342.1,2019.31,1342.1z M1147.7,1554.58c-17.42-15.41-36.17-28.14-56.26-38.19
		c-26.4-13.2-53.78-22.43-82.17-27.71c-28.38-5.28-55.76-7.93-82.15-7.93c-55.44,0-103.28,10.9-143.53,32.67
		c-40.26,21.79-73.26,50.17-99,85.14c-25.74,34.97-44.87,74.56-57.41,118.78c-12.54,44.22-18.8,88.11-18.8,131.65
		c0,48.84,7.26,95.7,21.77,140.58c14.51,44.87,35.64,84.47,63.35,118.78c27.71,34.32,61.7,61.71,101.97,82.17
		c40.25,20.45,85.45,30.68,135.61,30.68c26.4,0,53.46-2.97,81.17-8.91s54.44-15.83,80.18-29.69c19.44-10.47,37.37-23.2,53.8-38.18
		c27.78,74.26,65.8,143.53,112.37,206.06l-85.06,85.06c17.95,23.17,36.95,45.48,56.92,66.89c-39.5,16.31-80.89,29.49-124.17,39.5
		c-62.7,14.5-123.74,21.77-183.13,21.77c-104.26,0-199.63-20.78-286.07-62.36c-86.46-41.58-161.03-96.68-223.73-165.32
		c-62.7-68.62-111.2-146.49-145.51-233.6c-34.32-87.11-51.47-175.55-51.47-265.31c0-85.78,16.17-170.25,48.5-253.4
		c32.34-83.15,79.51-157.73,141.54-223.71c62.04-65.99,137.27-119.45,225.7-160.37c88.43-40.91,189.4-61.38,302.91-61.38
		c112.07,0,211.79,19.08,299.19,57.2c-21.52,22.81-41.95,46.66-61.16,71.5l85.52,85.52
		C1212.84,1413.88,1175.34,1481.8,1147.7,1554.58z"/>
	<path class="st1" d="M2018.87,2676.34c-34.98,0-70.21-2.21-104.69-6.58l-7.87-1v-102.53c-113.71-17.86-222.46-63.24-315.44-131.64
		l-72.66,72.66l-6.27-4.89c-54.51-42.48-103.61-91.72-145.93-146.35l-4.86-6.27l72.82-72.82
		c-67.94-93.33-112.77-202.29-130.06-316.1h-103.22l-0.97-7.9c-4.15-33.66-6.25-67.97-6.25-101.97c0-34.99,2.21-70.21,6.58-104.69
		l1-7.87h103.43c17.66-112.48,62.3-220.21,129.49-312.51l-73.21-73.21l4.85-6.27c42.28-54.66,91.34-103.94,145.82-146.47l6.27-4.9
		l73.17,73.17c92.98-68.4,201.72-113.78,315.44-131.64v-103.43l7.87-1c34.49-4.37,69.71-6.58,104.69-6.58
		c33.99,0,68.3,2.1,101.97,6.25l7.9,0.97v103.22c113.81,17.29,222.77,62.12,316.1,130.06l72.82-72.82l6.27,4.86
		c54.63,42.32,103.87,91.42,146.35,145.93l4.89,6.27l-72.66,72.66c68.4,92.98,113.78,201.73,131.64,315.44h102.53l1,7.87
		c4.37,34.48,6.58,69.71,6.58,104.69c0,34.01-2.1,68.32-6.25,101.97l-0.97,7.9h-102.32c-17.47,115.04-63.05,225.02-132.2,319.03
		l72.27,72.27l-4.9,6.27c-42.52,54.48-91.8,103.54-146.46,145.82l-6.27,4.85l-72.31-72.31c-93.33,67.94-202.29,112.77-316.1,130.06
		v102.32l-7.9,0.97C2087.18,2674.24,2052.87,2676.34,2018.87,2676.34z M2019.31,1351.1c-275.86,0-500.3,224.43-500.3,500.3
		c0,275.86,224.43,500.3,500.3,500.3c275.86,0,500.3-224.43,500.3-500.3C2519.61,1575.53,2295.18,1351.1,2019.31,1351.1z
		 M923.15,2572.7c-105.17,0-202.73-21.28-289.97-63.25c-87.1-41.89-163.3-98.2-226.47-167.36
		c-63.14-69.11-112.68-148.64-147.24-236.38c-34.57-87.74-52.1-178.11-52.1-268.61c0-86.5,16.52-172.85,49.12-256.66
		c32.62-83.87,80.85-160.11,143.38-226.62c62.55-66.53,139.42-121.16,228.48-162.38c89.23-41.28,192.42-62.21,306.69-62.21
		c112.75,0,214.63,19.5,302.79,57.95l11.73,5.12l-8.78,9.31c-19.54,20.7-38.25,42.4-55.71,64.58l85.39,85.39l-4.65,6.24
		c-45.7,61.37-82.61,128.64-109.69,199.94l-4.62,12.17l-9.75-8.63c-16.77-14.83-35.04-27.24-54.33-36.88
		c-25.51-12.75-52.35-21.81-79.79-26.91c-27.74-5.16-54.82-7.78-80.51-7.78c-53.65,0-100.5,10.63-139.25,31.59
		c-38.89,21.04-71.2,48.82-96.03,82.56c-24.98,33.94-43.82,72.93-56,115.9c-12.25,43.19-18.46,86.66-18.46,129.2
		c0,47.67,7.18,94.04,21.33,137.81c14.1,43.59,34.89,82.59,61.79,115.89c26.78,33.17,60.1,60.02,99.04,79.8
		c38.79,19.71,83.04,29.71,131.53,29.71c25.65,0,52.33-2.93,79.29-8.71c26.77-5.74,52.95-15.43,77.8-28.81
		c18.69-10.06,36.19-22.48,52-36.91l9.83-8.97l4.66,12.47c27.22,72.77,64.62,141.35,111.16,203.84l4.65,6.24l-84.93,84.93
		c16.23,20.59,33.53,40.75,51.5,60.01l8.86,9.5l-12.01,4.96c-39.8,16.44-82.05,29.88-125.57,39.95
		C1045.17,2565.3,982.88,2572.7,923.15,2572.7z M3168.3,2572.31c-91.78,0-180.8-16.52-264.61-49.11
		c-27.67-10.76-54.61-23.36-80.08-37.46l-9.75-5.39l7.32-8.4c9.73-11.15,19.14-22.45,28.06-33.67l-84.26-84.25l4.7-6.25
		c67.86-90.16,115.75-191.24,142.34-300.43l5.77-23.69l11.01,21.76c12.59,24.89,27.83,47.6,45.29,67.49
		c27.39,31.21,60.67,55.76,98.9,72.96c38.24,17.21,81.63,25.94,128.95,25.94c102.78,0,195.46-40.55,275.78-120.59h-231.32v-295.18
		h596.1v766.36h-336.76v-106.85c-46.63,36.82-96.93,65.21-149.76,84.53C3297.54,2561.47,3234.39,2572.31,3168.3,2572.31z
		 M2912.52,1656.76c-26.48-110-74.53-211.77-142.81-302.49l-4.7-6.25l84.72-84.72c-6.24-7.86-12.83-15.89-19.66-23.94l-7.03-8.3
		l9.47-5.35c27.21-15.38,56.1-29.42,85.87-41.73c88.48-36.58,185.23-55.13,287.55-55.13c63.74,0,125.72,7.08,184.22,21.04
		c58.58,13.98,113.62,34.91,163.58,62.22c49.98,27.33,95.57,60.43,135.53,98.39c40.12,38.11,73.35,81.86,98.77,130.01l3.55,6.73
		l-301.75,231.01l-4.87-9.74c-26.83-53.63-67.66-97.36-121.36-129.96c-53.77-32.64-111.47-49.19-171.52-49.19
		c-44.6,0-85.92,9.03-122.79,26.83c-36.96,17.84-69.26,43.04-96.02,74.89c-16.82,20.02-31.6,42.76-43.92,67.58l-11.01,22.18
		L2912.52,1656.76z"/>
</g>
<g>
	<path class="st3" d="M2364.7,1635.86l-343.73-176.16l-342.23,175.57v431.29l342.23,174.3l343.5-174.3L2364.7,1635.86z"/>
	<polygon class="st2" points="1668.75,2072.68 1668.75,1629.16 2020.97,1448.46 2374.71,1629.75 2374.47,2072.7 2020.97,2252.07 	
		"/>
</g>
<path class="st0" d="M2020.98,1812.11l-342.23-176.84l342.23-175.57l343.5,175.57L2020.98,1812.11z M1987.2,1731.88
	c4.39,16.01,33.04,23.4,61.73,21.37c28.69-2.03,48.38-16.66,43.98-32.67c-4.39-16.01-33.04-23.4-61.73-21.37
	C2002.5,1701.24,1982.81,1715.87,1987.2,1731.88z M1899.53,1620.07c-4.39-16.01-33.04-23.4-61.73-21.37
	c-28.69,2.03-48.38,16.66-43.98,32.67c4.39,16.01,33.04,23.4,61.73,21.37C1884.23,1650.71,1903.93,1636.08,1899.53,1620.07z
	 M1934.5,1648.32c-28.69,2.03-48.38,16.66-43.98,32.67c4.39,16.01,33.04,23.4,61.73,21.37c28.69-2.03,48.38-16.66,43.98-32.67
	C1991.83,1653.67,1963.18,1646.29,1934.5,1648.32z M2053.47,1542.46c-4.39-16.01-33.04-23.4-61.73-21.37
	c-28.69,2.03-48.38,16.66-43.98,32.67c4.39,16.01,33.04,23.4,61.73,21.37S2057.87,1558.48,2053.47,1542.46z M2150.16,1592.08
	c-4.39-16.01-33.04-23.4-61.73-21.37c-28.69,2.03-48.38,16.66-43.98,32.67c4.39,16.01,33.04,23.4,61.73,21.37
	C2134.86,1622.72,2154.56,1608.09,2150.16,1592.08z M2185.13,1620.33c-28.69,2.03-48.38,16.66-43.98,32.67
	c4.39,16.01,33.04,23.4,61.73,21.37c28.69-2.03,48.38-16.66,43.98-32.67C2242.46,1625.69,2213.81,1618.3,2185.13,1620.33z"/>
<rect x="2070.62" y="1818.36" class="st0" width="245.11" height="245.11"/>
<path class="st3" d="M2020.98,2240.85v-428.74l343.5-176.84v431.29L2020.98,2240.85z M2143.45,1837.46
	c-15.78-11.57-39.55-0.35-53.1,25.04c-13.55,25.4-16.79,55.19-1.02,66.75c15.78,11.57,39.55,0.35,53.1-25.04
	C2155.99,1878.81,2159.23,1849.02,2143.45,1837.46z M2219.79,1893.43c-15.78-11.57-39.55-0.35-53.11,25.04
	c-13.55,25.4-16.79,55.19-1.02,66.75c15.78,11.57,39.55,0.35,53.11-25.04C2232.32,1934.79,2235.56,1905,2219.79,1893.43z
	 M2296.12,1949.41c-15.78-11.57-39.55-0.35-53.1,25.04c-13.55,25.4-16.79,55.19-1.02,66.75c15.78,11.57,39.55,0.35,53.1-25.04
	C2308.66,1990.77,2311.9,1960.98,2296.12,1949.41z"/>
<path class="st0" d="M1678.62,2066.68l0.12-431.41l342.23,176.84v428.74L1678.62,2066.68z M1744,2015.24
	c12.77,25.85,36.34,37.89,52.65,26.88s14.09-40.89,1.32-66.75c-12.77-25.85-36.34-37.89-52.65-26.88
	C1729.01,1959.5,1731.23,1989.39,1744,2015.24z M1799.24,1784.54c-12.77-25.85-36.34-37.89-52.65-26.88s-14.09,40.89-1.32,66.75
	c12.77,25.85,36.34,37.89,52.65,26.88S1812.01,1810.4,1799.24,1784.54z M1875.57,1919.4c-12.77-25.85-36.34-37.89-52.65-26.88
	s-14.09,40.89-1.32,66.75c12.77,25.85,36.34,37.89,52.65,26.88C1890.56,1975.14,1888.34,1945.25,1875.57,1919.4z M1897.94,2092.85
	c12.77,25.85,36.34,37.89,52.65,26.88s14.09-40.89,1.32-66.75c-12.77-25.85-36.34-37.89-52.65-26.88
	C1882.95,2037.11,1885.17,2066.99,1897.94,2092.85z M1953.18,1863.42c-12.77-25.85-36.34-37.89-52.65-26.88
	c-16.31,11.01-14.09,40.89-1.32,66.75c12.77,25.85,36.34,37.89,52.65,26.88S1965.95,1889.27,1953.18,1863.42z"/>
<path class="st3" d="M1337.67,3276.49h-218.82v216.28c0,7.03-5.69,12.72-12.72,12.72H863.64c-7.03,0-12.72-5.7-12.72-12.72v-216.28
	H634.68c-7.03,0-12.72-5.7-12.72-12.72v-242.4c0-7.03,5.7-12.72,12.72-12.72h216.24v-218.82c0-7.03,5.7-12.72,12.72-12.72h242.48
	c7.03,0,12.72,5.7,12.72,12.72v218.82h218.82c7.03,0,12.72,5.7,12.72,12.72v242.4C1350.39,3270.79,1344.69,3276.49,1337.67,3276.49z
	"/>
<g>
	<path class="st3" d="M3052.4,2721.33c71.41,0,129.29,57.89,129.29,129.29c0,71.41-57.88,129.29-129.29,129.29
		c-71.41,0-129.29-57.89-129.29-129.29C2923.11,2779.22,2980.99,2721.33,3052.4,2721.33z"/>
	<path class="st2" d="M3052.4,2988.91c-76.25,0-138.29-62.04-138.29-138.29c0-76.25,62.04-138.29,138.29-138.29
		c76.25,0,138.29,62.04,138.29,138.29C3190.69,2926.87,3128.65,2988.91,3052.4,2988.91z"/>
</g>
<g>
	<path class="st3" d="M3343.95,3012.88c71.41,0,129.29,57.89,129.29,129.29c0,71.41-57.88,129.29-129.29,129.29
		s-129.29-57.89-129.29-129.29C3214.66,3070.77,3272.54,3012.88,3343.95,3012.88z"/>
	
		<ellipse transform="matrix(0.2298 -0.9732 0.9732 0.2298 -482.4473 5674.748)" class="st2" cx="3343.95" cy="3142.17" rx="138.29" ry="138.29"/>
</g>
<g>
	<path class="st3" d="M3052.4,3304.44c71.41,0,129.29,57.89,129.29,129.29c0,71.41-57.88,129.29-129.29,129.29
		c-71.41,0-129.29-57.89-129.29-129.29C2923.11,3362.32,2980.99,3304.44,3052.4,3304.44z"/>
	<path class="st2" d="M3052.4,3572.02c-76.25,0-138.29-62.04-138.29-138.29s62.04-138.29,138.29-138.29
		c76.25,0,138.29,62.04,138.29,138.29S3128.65,3572.02,3052.4,3572.02z"/>
</g>
<g>
	<path class="st3" d="M2760.84,3012.88c71.41,0,129.29,57.89,129.29,129.29c0,71.41-57.88,129.29-129.29,129.29
		s-129.29-57.89-129.29-129.29C2631.55,3070.77,2689.44,3012.88,2760.84,3012.88z"/>
	<path class="st2" d="M2760.84,3280.46c-76.25,0-138.29-62.04-138.29-138.29c0-76.25,62.04-138.29,138.29-138.29
		c76.25,0,138.29,62.04,138.29,138.29C2899.13,3218.43,2837.1,3280.46,2760.84,3280.46z"/>
</g>
</svg>
